<mxfile host="app.diagrams.net" modified="2022-08-04T22:16:13.840Z" agent="5.0 (X11)" etag="66ylzzh06P36DelzhwaH" version="20.2.3" type="github">
  <diagram name="Page-1" id="16e2658f-23c8-b752-8be9-c03fbebb8bbe">
    <mxGraphModel dx="2942" dy="186" grid="1" gridSize="10" guides="1" tooltips="1" connect="1" arrows="1" fold="1" page="1" pageScale="1" pageWidth="1600" pageHeight="900" background="none" math="0" shadow="0">
      <root>
        <mxCell id="0" />
        <mxCell id="1" parent="0" />
        <mxCell id="tk3jWDGdzixleCatkMts-180" style="edgeStyle=elbowEdgeStyle;rounded=0;orthogonalLoop=1;jettySize=auto;html=1;labelBackgroundColor=default;fontSize=16;fontColor=none;startArrow=none;startFill=0;endArrow=none;endFill=0;strokeColor=#b85450;strokeWidth=5;dashed=1;fillColor=#f8cecc;" parent="1" source="tk3jWDGdzixleCatkMts-201" edge="1">
          <mxGeometry relative="1" as="geometry">
            <mxPoint x="630" y="1160" as="targetPoint" />
          </mxGeometry>
        </mxCell>
        <mxCell id="tk3jWDGdzixleCatkMts-181" value="CAN L" style="edgeStyle=elbowEdgeStyle;rounded=0;orthogonalLoop=1;jettySize=auto;html=1;labelBackgroundColor=default;fontSize=16;fontColor=none;startArrow=classic;startFill=1;endArrow=classic;endFill=1;strokeColor=#001DBC;strokeWidth=5;fillColor=#0050ef;fontStyle=1;entryX=1.007;entryY=0.83;entryDx=0;entryDy=0;entryPerimeter=0;" parent="1" source="tk3jWDGdzixleCatkMts-182" target="tk3jWDGdzixleCatkMts-192" edge="1">
          <mxGeometry x="-0.5131" y="40" relative="1" as="geometry">
            <mxPoint x="1800.000000000001" y="1450" as="targetPoint" />
            <Array as="points">
              <mxPoint x="1800" y="1330" />
            </Array>
            <mxPoint y="-1" as="offset" />
          </mxGeometry>
        </mxCell>
        <mxCell id="tk3jWDGdzixleCatkMts-182" value="CAN Toolhead" style="whiteSpace=wrap;html=1;aspect=fixed;rounded=0;glass=0;labelBorderColor=none;sketch=0;fontSize=16;fontColor=none;strokeColor=default;strokeWidth=3;fillColor=none;opacity=50;fontStyle=1" parent="1" vertex="1">
          <mxGeometry x="1680" y="1040" width="160" height="160" as="geometry" />
        </mxCell>
        <mxCell id="tk3jWDGdzixleCatkMts-183" value="24V PSU" style="shape=step;perimeter=stepPerimeter;whiteSpace=wrap;html=1;fixedSize=1;rounded=0;glass=0;labelBorderColor=none;sketch=0;fontSize=16;fontColor=none;strokeColor=default;strokeWidth=3;fillColor=none;opacity=50;fontStyle=1" parent="1" vertex="1">
          <mxGeometry x="110" y="1040" width="210" height="160" as="geometry" />
        </mxCell>
        <mxCell id="tk3jWDGdzixleCatkMts-184" value="PRINTER CONTROLLER" style="rounded=0;whiteSpace=wrap;html=1;glass=0;labelBorderColor=none;sketch=0;fontSize=16;fontColor=none;strokeColor=default;strokeWidth=3;fillColor=none;opacity=50;fontStyle=1" parent="1" vertex="1">
          <mxGeometry x="660" y="1260" width="320" height="240" as="geometry" />
        </mxCell>
        <mxCell id="tk3jWDGdzixleCatkMts-185" style="edgeStyle=elbowEdgeStyle;rounded=0;orthogonalLoop=1;jettySize=auto;html=1;entryX=0.75;entryY=0;entryDx=0;entryDy=0;dashed=1;labelBackgroundColor=none;fontSize=16;fontColor=none;startArrow=none;startFill=0;endArrow=none;endFill=0;strokeColor=#b85450;strokeWidth=5;fillColor=#f8cecc;" parent="1" source="tk3jWDGdzixleCatkMts-184" target="tk3jWDGdzixleCatkMts-184" edge="1">
          <mxGeometry relative="1" as="geometry">
            <mxPoint x="770" y="1580" as="sourcePoint" />
            <Array as="points">
              <mxPoint x="780" y="1310" />
            </Array>
          </mxGeometry>
        </mxCell>
        <mxCell id="tk3jWDGdzixleCatkMts-186" value="FUSE" style="rounded=0;whiteSpace=wrap;html=1;glass=0;labelBorderColor=none;sketch=0;fontSize=16;strokeColor=#d79b00;strokeWidth=3;fillColor=#ffe6cc;opacity=50;fontStyle=1" parent="1" vertex="1">
          <mxGeometry x="760" y="1290" width="120" height="40" as="geometry" />
        </mxCell>
        <mxCell id="tk3jWDGdzixleCatkMts-187" value="BED IN" style="endArrow=classicThin;dashed=1;html=1;rounded=0;labelBackgroundColor=none;fontSize=16;fontColor=none;strokeColor=#b85450;strokeWidth=5;fillColor=#f8cecc;endFill=1;fontStyle=1;entryX=0.22;entryY=-0.005;entryDx=0;entryDy=0;entryPerimeter=0;" parent="1" edge="1">
          <mxGeometry x="0.6231" y="45" width="50" height="50" relative="1" as="geometry">
            <mxPoint x="705" y="1160" as="sourcePoint" />
            <mxPoint x="705.3999999999996" y="1258.7999999999997" as="targetPoint" />
            <mxPoint as="offset" />
          </mxGeometry>
        </mxCell>
        <mxCell id="tk3jWDGdzixleCatkMts-188" value="BED OUT" style="endArrow=classic;dashed=1;html=1;rounded=0;labelBackgroundColor=none;fontSize=16;fontColor=none;strokeColor=#b85450;strokeWidth=5;exitX=1;exitY=0.5;exitDx=0;exitDy=0;fillColor=#f8cecc;endFill=1;fontStyle=1" parent="1" edge="1">
          <mxGeometry x="0.2" y="40" width="50" height="50" relative="1" as="geometry">
            <mxPoint x="880" y="1310" as="sourcePoint" />
            <mxPoint x="930" y="1160" as="targetPoint" />
            <mxPoint as="offset" />
            <Array as="points">
              <mxPoint x="930" y="1310" />
            </Array>
          </mxGeometry>
        </mxCell>
        <mxCell id="tk3jWDGdzixleCatkMts-189" style="edgeStyle=elbowEdgeStyle;rounded=0;orthogonalLoop=1;jettySize=auto;html=1;labelBackgroundColor=none;fontSize=16;fontColor=none;startArrow=none;startFill=1;endArrow=none;endFill=0;strokeColor=#b85450;strokeWidth=5;fillColor=#f8cecc;" parent="1" edge="1">
          <mxGeometry relative="1" as="geometry">
            <mxPoint x="930" y="1160" as="targetPoint" />
            <Array as="points">
              <mxPoint x="1270" y="1360" />
              <mxPoint x="1290" y="1270" />
              <mxPoint x="1280" y="1260" />
            </Array>
            <mxPoint x="930" y="1160" as="sourcePoint" />
          </mxGeometry>
        </mxCell>
        <mxCell id="tk3jWDGdzixleCatkMts-190" style="edgeStyle=elbowEdgeStyle;rounded=0;orthogonalLoop=1;jettySize=auto;html=1;labelBackgroundColor=none;fontSize=16;fontColor=none;startArrow=none;startFill=0;endArrow=classic;endFill=1;strokeColor=#b85450;strokeWidth=5;fillColor=#f8cecc;exitX=1;exitY=0.5;exitDx=0;exitDy=0;entryX=0;entryY=0.75;entryDx=0;entryDy=0;" parent="1" source="tk3jWDGdzixleCatkMts-192" target="tk3jWDGdzixleCatkMts-182" edge="1">
          <mxGeometry relative="1" as="geometry">
            <mxPoint x="1570.000000000001" y="1160" as="targetPoint" />
            <Array as="points">
              <mxPoint x="1570" y="1160" />
              <mxPoint x="1570" y="1270" />
            </Array>
          </mxGeometry>
        </mxCell>
        <mxCell id="tk3jWDGdzixleCatkMts-191" value="CAN H" style="edgeStyle=elbowEdgeStyle;rounded=0;orthogonalLoop=1;jettySize=auto;html=1;labelBackgroundColor=default;fontSize=16;fontColor=none;startArrow=classic;startFill=1;endArrow=classic;endFill=1;strokeColor=#005700;strokeWidth=5;fillColor=#008a00;fontStyle=1;exitX=1.025;exitY=0.663;exitDx=0;exitDy=0;exitPerimeter=0;entryX=0.315;entryY=1.008;entryDx=0;entryDy=0;entryPerimeter=0;" parent="1" source="tk3jWDGdzixleCatkMts-192" target="tk3jWDGdzixleCatkMts-182" edge="1">
          <mxGeometry x="0.422" y="40" relative="1" as="geometry">
            <mxPoint x="1720.000000000001" y="1420" as="sourcePoint" />
            <Array as="points">
              <mxPoint x="1730" y="1480" />
            </Array>
            <mxPoint as="offset" />
            <mxPoint x="1730" y="1210" as="targetPoint" />
          </mxGeometry>
        </mxCell>
        <mxCell id="tk3jWDGdzixleCatkMts-192" value="U2C/UTOC" style="rounded=0;whiteSpace=wrap;html=1;glass=0;labelBorderColor=none;sketch=0;fontSize=16;fontColor=none;strokeColor=default;strokeWidth=3;fillColor=none;opacity=50;fontStyle=1" parent="1" vertex="1">
          <mxGeometry x="1240" y="1260" width="120" height="240" as="geometry" />
        </mxCell>
        <mxCell id="tk3jWDGdzixleCatkMts-193" value="" style="endArrow=none;html=1;rounded=0;labelBackgroundColor=none;fontSize=16;fontColor=none;strokeColor=#0A0504;strokeWidth=5;endFill=0;startArrow=classic;startFill=1;exitX=0.75;exitY=0;exitDx=0;exitDy=0;" parent="1" source="tk3jWDGdzixleCatkMts-192" edge="1">
          <mxGeometry width="50" height="50" relative="1" as="geometry">
            <mxPoint x="1330" y="1310" as="sourcePoint" />
            <mxPoint x="1330" y="1080" as="targetPoint" />
            <Array as="points" />
          </mxGeometry>
        </mxCell>
        <mxCell id="tk3jWDGdzixleCatkMts-194" value="V-" style="endArrow=none;html=1;rounded=0;labelBackgroundColor=none;fontSize=26;fontColor=none;strokeColor=#0A0504;strokeWidth=6;exitX=1;exitY=0.25;exitDx=0;exitDy=0;fontStyle=1" parent="1" source="tk3jWDGdzixleCatkMts-183" edge="1">
          <mxGeometry x="-0.0007" y="22" width="50" height="50" relative="1" as="geometry">
            <mxPoint x="570" y="1200" as="sourcePoint" />
            <mxPoint x="1330" y="1080" as="targetPoint" />
            <Array as="points" />
            <mxPoint as="offset" />
          </mxGeometry>
        </mxCell>
        <mxCell id="tk3jWDGdzixleCatkMts-195" value="" style="endArrow=none;html=1;rounded=0;labelBackgroundColor=none;fontSize=16;fontColor=none;strokeColor=#0A0504;strokeWidth=5;entryX=1.006;entryY=0.339;entryDx=0;entryDy=0;entryPerimeter=0;endFill=0;startArrow=classic;startFill=1;exitX=0;exitY=0.25;exitDx=0;exitDy=0;" parent="1" source="tk3jWDGdzixleCatkMts-182" target="tk3jWDGdzixleCatkMts-192" edge="1">
          <mxGeometry width="50" height="50" relative="1" as="geometry">
            <mxPoint x="1520" y="1080" as="sourcePoint" />
            <mxPoint x="700" y="1150" as="targetPoint" />
            <Array as="points">
              <mxPoint x="1520" y="1080" />
              <mxPoint x="1520" y="1342" />
            </Array>
          </mxGeometry>
        </mxCell>
        <mxCell id="tk3jWDGdzixleCatkMts-196" value="PI" style="rounded=0;whiteSpace=wrap;html=1;glass=0;labelBorderColor=none;sketch=0;fontSize=16;fontColor=none;strokeColor=default;strokeWidth=3;fillColor=none;opacity=50;fontStyle=1" parent="1" vertex="1">
          <mxGeometry x="110" y="1550" width="240" height="240" as="geometry" />
        </mxCell>
        <mxCell id="tk3jWDGdzixleCatkMts-197" value="USB" style="shape=flexArrow;endArrow=classic;startArrow=classic;html=1;rounded=0;labelBackgroundColor=default;fontSize=16;fontColor=none;strokeColor=#9673a6;strokeWidth=5;entryX=0;entryY=0.5;entryDx=0;entryDy=0;exitX=1;exitY=0.25;exitDx=0;exitDy=0;fillColor=#e1d5e7;fontStyle=1" parent="1" source="tk3jWDGdzixleCatkMts-196" target="tk3jWDGdzixleCatkMts-184" edge="1">
          <mxGeometry y="30" width="100" height="100" relative="1" as="geometry">
            <mxPoint x="340" y="1780" as="sourcePoint" />
            <mxPoint x="440" y="1680" as="targetPoint" />
            <mxPoint as="offset" />
            <Array as="points">
              <mxPoint x="460" y="1610" />
              <mxPoint x="460" y="1380" />
            </Array>
          </mxGeometry>
        </mxCell>
        <mxCell id="tk3jWDGdzixleCatkMts-198" value="V+" style="endArrow=none;html=1;rounded=0;labelBackgroundColor=default;fontSize=26;fontColor=none;strokeColor=#b85450;strokeWidth=5;fillColor=#f8cecc;entryX=1;entryY=0.75;entryDx=0;entryDy=0;endFill=0;startArrow=classic;startFill=1;fontStyle=1" parent="1" edge="1">
          <mxGeometry x="0.0029" y="-20" width="50" height="50" relative="1" as="geometry">
            <mxPoint x="700" y="1160" as="sourcePoint" />
            <mxPoint x="310.86956521739194" y="1159.521739130435" as="targetPoint" />
            <mxPoint as="offset" />
          </mxGeometry>
        </mxCell>
        <mxCell id="tk3jWDGdzixleCatkMts-199" value="USB" style="shape=flexArrow;endArrow=classic;startArrow=classic;html=1;rounded=0;labelBackgroundColor=default;fontSize=16;fontColor=none;strokeColor=#9673a6;strokeWidth=5;entryX=1;entryY=0.5;entryDx=0;entryDy=0;exitX=0.5;exitY=1;exitDx=0;exitDy=0;fillColor=#e1d5e7;fontStyle=1" parent="1" source="tk3jWDGdzixleCatkMts-192" target="tk3jWDGdzixleCatkMts-196" edge="1">
          <mxGeometry x="0.339" y="-20" width="100" height="100" relative="1" as="geometry">
            <mxPoint x="-150" y="1610" as="sourcePoint" />
            <mxPoint x="-50" y="1510" as="targetPoint" />
            <Array as="points">
              <mxPoint x="1300" y="1670" />
            </Array>
            <mxPoint x="1" as="offset" />
          </mxGeometry>
        </mxCell>
        <mxCell id="tk3jWDGdzixleCatkMts-200" value="" style="endArrow=classicThin;dashed=1;html=1;rounded=0;labelBackgroundColor=none;fontSize=16;fontColor=none;strokeColor=#b85450;strokeWidth=5;fillColor=#f8cecc;endFill=1;fontStyle=1;entryX=0;entryY=0.5;entryDx=0;entryDy=0;exitX=0.226;exitY=-0.012;exitDx=0;exitDy=0;exitPerimeter=0;" parent="1" target="tk3jWDGdzixleCatkMts-186" edge="1">
          <mxGeometry x="0.7481" y="-40" width="50" height="50" relative="1" as="geometry">
            <mxPoint x="707.3199999999997" y="1257.1200000000003" as="sourcePoint" />
            <mxPoint x="735" y="1310" as="targetPoint" />
            <mxPoint as="offset" />
            <Array as="points">
              <mxPoint x="707" y="1310" />
            </Array>
          </mxGeometry>
        </mxCell>
        <mxCell id="tk3jWDGdzixleCatkMts-207" style="edgeStyle=elbowEdgeStyle;rounded=0;orthogonalLoop=1;jettySize=auto;html=1;labelBackgroundColor=default;fontSize=26;fontColor=#FF1414;startArrow=none;startFill=0;endArrow=none;endFill=0;strokeColor=#ae4132;strokeWidth=6;fillColor=#fad9d5;dashed=1;" parent="1" source="tk3jWDGdzixleCatkMts-201" edge="1">
          <mxGeometry relative="1" as="geometry">
            <mxPoint x="920" y="1160" as="targetPoint" />
          </mxGeometry>
        </mxCell>
        <mxCell id="tk3jWDGdzixleCatkMts-201" value="FUSE" style="rounded=0;whiteSpace=wrap;html=1;glass=0;labelBorderColor=none;sketch=0;fontSize=16;strokeColor=#d79b00;strokeWidth=3;fillColor=#ffe6cc;opacity=50;fontStyle=1" parent="1" vertex="1">
          <mxGeometry x="760" y="1140" width="120" height="40" as="geometry" />
        </mxCell>
        <mxCell id="tk3jWDGdzixleCatkMts-202" value="" style="edgeStyle=elbowEdgeStyle;rounded=0;orthogonalLoop=1;jettySize=auto;html=1;labelBackgroundColor=none;fontSize=16;fontColor=none;startArrow=classic;startFill=1;endArrow=none;endFill=0;strokeColor=#b85450;strokeWidth=5;fillColor=#f8cecc;" parent="1" source="tk3jWDGdzixleCatkMts-192" edge="1">
          <mxGeometry relative="1" as="geometry">
            <mxPoint x="920" y="1160" as="targetPoint" />
            <Array as="points">
              <mxPoint x="1280" y="1370" />
            </Array>
            <mxPoint x="1280" y="1260" as="sourcePoint" />
          </mxGeometry>
        </mxCell>
        <mxCell id="tk3jWDGdzixleCatkMts-205" value="UTOC/U2C with 24v Passthrough" style="text;html=1;strokeColor=none;fillColor=none;spacing=5;spacingTop=-20;whiteSpace=wrap;overflow=hidden;rounded=0;glass=0;labelBorderColor=none;sketch=0;fontSize=48;fontColor=none;opacity=50;" parent="1" vertex="1">
          <mxGeometry x="520" y="920" width="750" height="40" as="geometry" />
        </mxCell>
        <mxCell id="tk3jWDGdzixleCatkMts-206" value="&lt;font color=&quot;#FF1414&quot;&gt;- - - - &lt;/font&gt;Optional Routing via Bed Fuse" style="text;html=1;strokeColor=#ae4132;fillColor=#fad9d5;align=center;verticalAlign=middle;whiteSpace=wrap;rounded=0;glass=0;labelBorderColor=none;sketch=0;fontSize=26;opacity=50;fontStyle=0" parent="1" vertex="1">
          <mxGeometry x="1000" y="960" width="440" height="60" as="geometry" />
        </mxCell>
        <mxCell id="tk3jWDGdzixleCatkMts-208" value="It is recommended to fuse your 24v line for extra safety" style="text;html=1;strokeColor=#b46504;fillColor=#fad7ac;align=center;verticalAlign=middle;whiteSpace=wrap;rounded=0;glass=0;labelBorderColor=none;sketch=0;fontSize=26;opacity=50;" parent="1" vertex="1">
          <mxGeometry x="360" y="960" width="640" height="60" as="geometry" />
        </mxCell>
        <mxCell id="lZ6KgXin5CP-6ay1xWOH-1" value="&lt;div style=&quot;font-size: 12px;&quot;&gt;&lt;font style=&quot;font-size: 12px;&quot; color=&quot;#1A0101&quot;&gt;The Microfit / Molex pins on EBB boards are reversed to those found on SHT/Huvud boards!!!&lt;/font&gt;&lt;/div&gt;" style="text;html=1;strokeColor=#b85450;fillColor=#f8cecc;spacing=5;spacingTop=-20;whiteSpace=wrap;overflow=hidden;rounded=0;fontSize=12;align=center;verticalAlign=bottom;strokeWidth=5;labelPosition=center;verticalLabelPosition=middle;" vertex="1" parent="1">
          <mxGeometry x="1635" y="950" width="250" height="70" as="geometry" />
        </mxCell>
      </root>
    </mxGraphModel>
  </diagram>
</mxfile>
